HIERARCHY
ROOT Hips
{
	OFFSET 0.00000 0.00000 0.00000
	CHANNELS 6 Xposition Yposition Zposition Zrotation Yrotation Xrotation 
	JOINT LHipJoint
	{
		OFFSET 0 0 0
		CHANNELS 3 Zrotation Yrotation Xrotation
		JOINT LeftHip
		{
			OFFSET 1.28366 -1.58472 0.87544
			CHANNELS 3 Zrotation Yrotation Xrotation
			JOINT LeftKnee
			{
				OFFSET 2.18587 -6.00562 0.00000
				CHANNELS 3 Zrotation Yrotation Xrotation
				JOINT LeftAnkle
				{
					OFFSET 2.39085 -6.56880 0.00000
					CHANNELS 3 Zrotation Yrotation Xrotation
					JOINT LeftToe
					{
						OFFSET 0.12003 -0.32979 2.03101
						CHANNELS 3 Zrotation Yrotation Xrotation
						End Site
						{
							OFFSET 0.00000 -0.00000 1.04074
						}
					}
				}
			}
		}
	}
	JOINT RHipJoint
	{
		OFFSET 0 0 0
		CHANNELS 3 Zrotation Yrotation Xrotation
		JOINT RightHip
		{
			OFFSET -1.21795 -1.58472 0.87544
			CHANNELS 3 Zrotation Yrotation Xrotation
			JOINT RightKnee
			{
				OFFSET -2.22714 -6.11902 0.00000
				CHANNELS 3 Zrotation Yrotation Xrotation
				JOINT RightAnkle
				{
					OFFSET -2.40306 -6.60235 0.00000
					CHANNELS 3 Zrotation Yrotation Xrotation
					JOINT RightToe
					{
						OFFSET -0.15519 -0.42640 1.91430
						CHANNELS 3 Zrotation Yrotation Xrotation
						End Site
						{
							OFFSET -0.00000 -0.00000 0.99082
						}
					}
				}
			}
		}
	}
	JOINT lowerback
	{
		OFFSET 0 0 0
		CHANNELS 3 Zrotation Yrotation Xrotation
		JOINT Chest
		{
			OFFSET 0.01180 1.76430 -0.06387
			CHANNELS 3 Zrotation Yrotation Xrotation
			JOINT Chest2
			{
				OFFSET -0.00388 1.74651 0.09536
				CHANNELS 3 Zrotation Yrotation Xrotation
				JOINT lowerneck
				{
					OFFSET 0 0 0
					CHANNELS 3 Zrotation Yrotation Xrotation
					JOINT Neck
					{
						OFFSET 0.04111 1.46174 0.14397
						CHANNELS 3 Zrotation Yrotation Xrotation
						JOINT Head
						{
							OFFSET 0.00502 1.44580 -0.31711
							CHANNELS 3 Zrotation Yrotation Xrotation
							End Site
							{
								OFFSET -0.00395 1.49251 -0.12327
							}
						}
					}
				}
				JOINT LeftCollar
				{
					OFFSET 0 0 0
					CHANNELS 3 Zrotation Yrotation Xrotation
					JOINT LeftShoulder
					{
						OFFSET 2.70917 1.34870 -0.15417
CHANNELS 3 Zrotation Xrotation Yrotation
						JOINT LeftElbow
						{
OFFSET 0 -4.466100 -0.000000
CHANNELS 3 Zrotation Xrotation Yrotation
							JOINT LeftWrist
							{
OFFSET 0 -3.414140 0.000000
CHANNELS 3 Zrotation Xrotation Yrotation
								JOINT lhand
								{
									OFFSET 0 0 0
CHANNELS 3 Zrotation Xrotation Yrotation
									JOINT LFingers
									{
OFFSET 0 -0.328300 0.000000
CHANNELS 3 Zrotation Xrotation Yrotation
										End Site
										{
OFFSET 0 -0.264680 0.000000
										}
									}
								}
								JOINT LThumb
								{
OFFSET 0 0.000000 0.000000
CHANNELS 3 Zrotation Xrotation Yrotation
									End Site
									{
OFFSET 0 -0.268720 0.268720
									}
								}
							}
						}
					}
				}
				JOINT RightCollar
				{
					OFFSET 0 0 0
					CHANNELS 3 Zrotation Yrotation Xrotation
					JOINT RightShoulder
					{
						OFFSET -3.06316 1.13725 -0.10883
CHANNELS 3 Zrotation Xrotation Yrotation
						JOINT RightElbow
						{
OFFSET 0 -4.404310 0.000000
CHANNELS 3 Zrotation Xrotation Yrotation
							JOINT RightWrist
							{
OFFSET 0 -3.046880 0.000000
CHANNELS 3 Zrotation Xrotation Yrotation
								JOINT rhand
								{
									OFFSET 0 0 0
CHANNELS 3 Zrotation Xrotation Yrotation
									JOINT RFingers
									{
OFFSET 0 -0.500490 0.000000
CHANNELS 3 Zrotation Xrotation Yrotation
										End Site
										{
OFFSET 0 -0.403510 0.000000
										}
									}
								}
								JOINT RThumb
								{
OFFSET 0 0.000000 0.000000
CHANNELS 3 Zrotation Xrotation Yrotation
									End Site
									{
OFFSET 0 -0.409670 0.409670
									}
								}
							}
						}
					}
				}
			}
		}
	}
}
MOTION
Frames: 7
Frame Time: 0.008333333333333333
0.312200 13.115600 11.810200 -177.601000 0.697300 -175.243000 0.000000 0.000000 0.000000 -13.268600 33.353600 -52.813300 16.007700 19.613500 78.254800 2.952700 -11.303200 -31.008400 0.010800 0.671700 1.845900 0.000000 0.000000 0.000000 20.609400 -30.757800 -51.852900 -16.530700 -19.708900 79.809000 -3.458600 8.650300 -33.743900 -0.843400 -5.857800 16.372400 -0.524900 2.097100 4.299500 0.528200 3.090300 -5.995600 0.467100 1.678700 -8.781900 0.828300 1.005800 -19.961800 2.207200 -0.298000 26.122500 0.571900 -0.066700 11.897900 0.000000 -0.000000 0.000000 84.761800 -15.944300 -69.259100 129.359300 -53.250700 93.313300 52.382900 -29.494200 11.392100 0.000000 0.000000 0.000000 -7.125000 0.000000 0.000000 16.765600 12.265800 13.422600 0.000000 -0.000000 0.000000 -76.894700 -8.876900 64.943300 -122.210300 -55.691600 -87.491400 -55.052900 -39.843600 -33.134100 0.000000 0.000000 0.000000 7.125000 0.000000 -0.000000 -11.955500 -17.858100 -15.317600
0.299733 13.110015 11.823997 -177.795583 0.710576 -175.349823 0.000000 0.000000 0.000000 -13.485465 33.316009 -52.578640 15.967228 19.605560 78.134141 3.020383 -11.098162 -31.369736 0.000966 0.192987 0.530330 0.000000 0.000000 0.000000 20.369324 -30.996572 -51.981777 -16.555560 -19.713170 79.882695 -3.479580 8.693290 -33.848417 -0.843014 -5.856444 16.368557 -0.497298 2.098934 4.273065 0.487368 3.089034 -5.967642 0.410939 1.673639 -8.731590 0.782095 1.035176 -20.103472 2.331609 -0.328863 26.518045 0.621587 -0.079516 12.081646 0.000000 0.000000 0.000000 84.581185 -15.935531 -69.251957 129.570968 -53.167062 93.482863 52.206917 -29.460347 11.371899 0.000000 0.000000 0.000000 -7.125000 0.000000 0.000000 16.663477 12.353831 13.301081 0.000000 0.000000 0.000000 -76.636203 -8.686916 64.793169 -122.297749 -55.665914 -87.563641 -54.931210 -40.115597 -33.111081 0.000000 0.000000 0.000000 7.125000 0.000000 0.000000 -11.902104 -17.756247 -15.233302
0.286620 13.116013 11.841808 -177.923519 0.752600 -175.469367 0.000000 0.000000 0.000000 -13.479756 33.178578 -52.240828 15.903415 19.592772 77.943960 3.017804 -10.480472 -31.354775 0.031207 -1.136325 -3.123953 0.000000 0.000000 0.000000 20.201440 -30.966289 -51.971289 -16.504368 -19.704496 79.730795 -3.540281 8.555027 -34.168360 -0.797014 -5.698314 15.911439 -0.301713 2.108785 4.384021 0.398459 3.111408 -5.988222 0.200226 1.667642 -8.803856 0.767008 1.046217 -20.075321 2.490109 -0.372900 26.599419 0.675998 -0.084805 12.109339 0.000000 0.000000 0.000000 84.625642 -15.766174 -69.064322 129.871179 -53.047330 93.722910 52.134169 -29.282910 11.184255 0.000000 0.000000 0.000000 -7.125000 0.000000 0.000000 16.667935 12.655016 13.195153 0.000000 0.000000 0.000000 -76.451696 -8.325018 64.801228 -122.707654 -55.544110 -87.901969 -54.779215 -39.948587 -33.122836 0.000000 0.000000 0.000000 7.125000 0.000000 0.000000 -11.820878 -17.674846 -15.115043
0.273399 13.125256 11.867139 -177.951367 0.731399 -175.450810 0.000000 0.000000 0.000000 -13.343040 32.564615 -51.918658 15.852510 19.582508 77.792077 2.986180 -10.316184 -31.185515 0.071833 -1.729147 -4.757758 0.000000 0.000000 0.000000 20.163615 -30.579432 -52.050652 -16.448267 -19.694863 79.564373 -3.589366 8.269715 -34.439387 -0.796846 -5.697648 15.909781 -0.077919 2.093934 4.424935 0.399375 3.115599 -6.029396 0.072693 1.656590 -8.861004 0.749313 1.086971 -20.048596 2.563584 -0.319180 26.512067 0.715184 -0.050385 12.069253 0.000000 0.000000 0.000000 84.719917 -15.559611 -68.757964 129.904638 -53.033879 93.749714 52.056516 -29.353414 11.102461 0.000000 0.000000 0.000000 -7.125000 0.000000 0.000000 16.641618 12.800804 13.119244 0.000000 0.000000 0.000000 -76.410684 -8.007490 64.845108 -122.799286 -55.516690 -87.977412 -54.525486 -39.634442 -33.146713 0.000000 0.000000 0.000000 7.125000 0.000000 0.000000 -11.684099 -17.544941 -14.916998
0.261871 13.142307 11.899405 -178.063508 0.614532 -175.379696 0.000000 0.000000 0.000000 -13.384047 31.517585 -51.509216 15.739552 19.559159 77.454717 2.976386 -10.316810 -31.132339 0.060091 -1.581237 -4.349776 0.000000 0.000000 0.000000 19.853530 -29.861543 -51.959130 -16.366359 -19.680445 79.321319 -3.588359 8.164282 -34.442966 -0.834005 -5.825836 16.280010 -0.044267 2.091051 4.398070 0.423670 3.118312 -6.031558 0.080323 1.657543 -8.847163 1.016331 1.218649 -20.043656 2.356327 -0.128293 26.337604 0.623469 0.043097 11.998187 0.000000 0.000000 0.000000 84.682721 -15.458388 -68.604621 129.651235 -53.135183 93.547112 52.109171 -29.502838 11.037449 0.000000 0.000000 0.000000 -7.125000 0.000000 0.000000 16.690842 12.880027 13.132698 0.000000 0.000000 0.000000 -76.338785 -7.693523 64.683218 -122.578151 -55.582876 -87.795062 -54.248376 -39.360548 -33.149278 0.000000 0.000000 0.000000 7.125000 0.000000 0.000000 -11.542827 -17.377960 -14.708892
0.244745 13.169675 11.939111 -178.097765 0.663319 -175.458115 0.000000 0.000000 0.000000 -12.970247 30.157089 -50.573920 15.607364 19.530941 77.059680 2.914639 -10.532079 -30.795278 0.065680 -1.653585 -4.549141 0.000000 0.000000 0.000000 19.169205 -28.560606 -51.241055 -16.204480 -19.651041 78.840307 -3.536746 8.194722 -34.178008 -0.842388 -5.854364 16.362392 0.184837 2.113439 4.492718 0.430350 3.160077 -5.963490 -0.047149 1.659532 -8.816891 1.175834 1.380571 -19.972132 2.306911 0.097157 26.103870 0.613941 0.161372 11.891321 0.000000 0.000000 0.000000 84.534634 -15.273588 -68.621908 129.265434 -53.287479 93.238099 52.149272 -29.519285 10.880840 0.000000 0.000000 0.000000 -7.125000 0.000000 0.000000 16.756337 13.099300 13.108315 0.000000 0.000000 0.000000 -76.177227 -7.740323 64.446691 -122.138532 -55.712662 -87.432188 -53.953543 -39.546521 -33.104821 0.000000 0.000000 0.000000 7.125000 0.000000 0.000000 -11.409061 -17.148956 -14.503184
0.222614 13.197914 11.981418 -177.856681 0.770556 -175.588571 0.000000 0.000000 0.000000 -12.397725 28.889799 -49.783349 15.513100 19.510296 76.777601 2.870952 -10.392541 -30.556066 0.069256 -1.697943 -4.671615 0.000000 0.000000 0.000000 18.625517 -26.885052 -50.245331 -15.933985 -19.598888 78.034912 -3.490531 8.263332 -33.936176 -0.873203 -5.957764 16.661936 0.606484 2.127552 4.640102 0.596102 3.225223 -5.909498 -0.120180 1.667927 -8.832435 1.254354 1.537514 -20.054750 2.275870 0.300536 26.184029 0.622799 0.257300 11.937820 0.000000 0.000000 0.000000 84.324794 -15.074749 -68.699148 129.075000 -53.361800 93.085400 52.246449 -29.687728 10.905838 0.000000 0.000000 0.000000 -7.125000 0.000000 0.000000 16.809510 13.031345 13.179048 0.000000 0.000000 0.000000 -76.253168 -7.963135 64.247343 -121.924243 -55.775014 -87.255040 -53.765124 -39.583395 -33.063419 0.000000 0.000000 0.000000 7.125000 0.000000 0.000000 -11.327954 -16.988671 -14.376037
